<svg width="146" height="40" viewBox="0 0 146 40" fill="none" xmlns="http://www.w3.org/2000/svg">
<g filter="url(#filter0_d_490_8830)">
<rect x="2" y="1" width="142" height="36" rx="6" fill="#F7F8F9"/>
<rect x="2.5" y="1.5" width="141" height="35" rx="5.5" stroke="#E1E3E8"/>
<g clip-path="url(#clip0_490_8830)">
<path fill-rule="evenodd" clip-rule="evenodd" d="M26.021 14.0002C26.2052 14.0002 26.4344 14.092 26.7104 14.3674L32.0876 19.744C32.96 20.6176 32.4548 21.304 31.3076 21.2146H26.021L29.192 24.4774H35.9474C38.0156 24.5692 39.6674 22.639 37.6022 20.6632L28.1822 11.2876C27.3968 10.5058 26.7104 10 26.021 10C25.3316 10 24.641 10.5058 23.861 11.2876L14.441 20.6626C12.3734 22.6384 14.027 24.5686 16.0952 24.4762H22.85L26.021 21.214H20.7362C19.5872 21.3058 19.0814 20.614 19.9562 19.7434L25.3328 14.3674C25.6082 14.092 25.8386 14.0002 26.0222 14.0002" fill="#2A58A3"/>
<path fill-rule="evenodd" clip-rule="evenodd" d="M25.9885 17.1353C26.3749 17.135 26.7527 17.2494 27.0741 17.4638C27.3955 17.6783 27.6461 17.9833 27.7942 18.3401C27.9422 18.697 27.9812 19.0898 27.906 19.4688C27.8309 19.8478 27.645 20.196 27.372 20.4694C27.0989 20.7428 26.751 20.9291 26.372 21.0047C25.9931 21.0803 25.6003 21.0418 25.2432 20.8942C24.8862 20.7466 24.5809 20.4963 24.366 20.1752C24.1512 19.8541 24.0364 19.4764 24.0361 19.0901C24.0363 18.5722 24.242 18.0757 24.6081 17.7095C24.9742 17.3433 25.4707 17.1374 25.9885 17.1371" fill="#E6363B"/>
<path fill-rule="evenodd" clip-rule="evenodd" d="M26 28.0001H35.8802C37.4888 27.9539 37.9028 27.5405 39.2354 24.9209C37.397 26.6669 36.9836 26.7587 35.8802 26.7587H16.1198C15.017 26.7587 14.603 26.6669 12.7646 24.9209C14.0972 27.5405 14.5112 27.9539 16.1198 28.0001H26Z" fill="#2A58A3"/>
<path d="M34.557 26.0588H34.857V26.2652H34.557V26.0588ZM34.557 25.4636H34.857V25.6706H34.557V25.4636ZM32.6748 25.8944C32.6748 25.5602 33.189 25.5824 33.189 25.5824L33.249 25.7294C33.1974 25.7168 32.934 25.712 32.9232 25.8932C32.9249 25.9394 32.9448 25.9831 32.9785 26.0148C33.0122 26.0465 33.057 26.0636 33.1032 26.0624H33.114C33.1591 26.065 33.2043 26.0571 33.2459 26.0394C33.2875 26.0218 33.3245 25.9947 33.354 25.9604V25.4636H32.52V25.3166H34.365V25.4636H33.6054V25.6844C33.6804 25.6281 33.7727 25.5997 33.8664 25.604C34.0818 25.604 34.263 25.7378 34.263 25.898C34.263 26.1068 33.9684 26.297 33.9684 26.297L33.7788 26.1962C33.7848 26.1962 34.0116 26.0576 34.0116 25.9016C34.011 25.881 34.0064 25.8607 33.998 25.8418C33.9896 25.8229 33.9776 25.8059 33.9626 25.7917C33.9476 25.7775 33.93 25.7664 33.9107 25.759C33.8914 25.7516 33.8708 25.7481 33.8502 25.7486H33.8412C33.7955 25.7535 33.7513 25.7677 33.7112 25.7903C33.6712 25.8129 33.6362 25.8434 33.6084 25.88V26.4146H33.3534V26.1572C33.0714 26.2904 32.6748 26.1698 32.6748 25.8962V25.8944ZM32.4846 24.854V24.9638C32.4397 24.9493 32.3924 24.9436 32.3454 24.947C32.085 24.947 32.1126 25.2716 32.3172 25.3148H32.1528C32.1012 25.2926 31.9626 25.172 31.9686 25.0622C31.974 24.8684 32.2686 24.7586 32.4846 24.8558V24.854ZM31.8528 25.3172H32.4792V25.4648H32.3322V26.411H32.0706V25.463H31.8552V25.316L31.8528 25.3172ZM31.368 25.664C31.4028 25.6675 31.4379 25.6625 31.4705 25.6497C31.503 25.6369 31.5321 25.6165 31.5552 25.5902C31.5726 25.4486 31.2012 25.3922 31.2012 25.5602C31.2042 25.6226 31.2834 25.664 31.368 25.664ZM30.753 25.319H31.8498V25.466H31.7166C31.9494 25.7006 31.7334 26.0498 31.3488 26.072C31.3596 26.072 31.4424 26.132 31.5048 26.1692C31.6152 26.2292 31.7142 26.285 31.7196 26.2892L31.5726 26.4242C31.3182 26.327 31.1016 26.1416 30.9042 25.991L31.068 25.871L31.164 25.931C31.1985 25.9471 31.2372 25.9515 31.2744 25.9436C31.5012 25.907 31.5384 25.8062 31.5438 25.7582C31.2804 25.8944 30.864 25.6982 31.02 25.4642H30.759L30.753 25.319ZM29.3244 25.319H30.7584V25.466H30.4866V25.766H29.8836C29.8487 25.762 29.8136 25.772 29.786 25.7938C29.7584 25.8156 29.7407 25.8475 29.7366 25.8824V25.8884C29.7366 26.087 30.1074 26.1578 30.1812 26.1194C30.1804 26.0953 30.1844 26.0712 30.1931 26.0487C30.2018 26.0262 30.215 26.0056 30.2317 25.9883C30.2485 25.9709 30.2687 25.9571 30.2909 25.9477C30.3131 25.9383 30.337 25.9334 30.3612 25.9334H30.3828C30.5754 25.9334 30.609 26.1614 30.4392 26.207C30.4596 26.2463 30.4843 26.2831 30.513 26.3168C30.5526 26.3708 30.624 26.4488 30.624 26.4488H30.357C30.357 26.4488 30.3144 26.3888 30.2916 26.351C30.2688 26.3132 30.2634 26.2952 30.2466 26.2676C30.2352 26.2718 29.4792 26.2952 29.484 25.871C29.484 25.7348 29.649 25.6232 29.8386 25.6232H30.225V25.4636H29.325V25.3166L29.3244 25.319ZM28.8834 25.9676V26.0948L28.2546 26.4092L28.1076 26.267L28.8834 25.9676ZM28.6266 26.1008C28.2894 26.0966 28.1814 25.8662 28.1814 25.8008V25.4648H27.9936V25.3178H29.295V25.4648H29.148V26.411H28.893V26.051C28.8123 26.0923 28.7219 26.111 28.6314 26.105L28.6266 26.1008ZM28.89 25.463H28.4412V25.808C28.4412 25.8872 28.4976 25.9628 28.6416 25.9676C28.6891 25.9679 28.7361 25.9582 28.7796 25.9392C28.8231 25.9202 28.8621 25.8923 28.8942 25.8572L28.89 25.463ZM27.363 25.316H27.9888V25.463H27.8412V26.4092H27.5802V25.463H27.366V25.316H27.363ZM26.8326 25.5998V25.727C26.7726 25.7318 26.484 25.706 26.484 25.5116C26.484 25.3808 26.6538 25.2914 26.844 25.2962C27.0906 25.2962 27.2982 25.4498 27.2982 25.631C27.2982 25.8122 27.0582 25.976 26.8272 25.967C26.8272 25.967 26.901 26.081 27.1134 26.0762C27.2069 26.0723 27.2987 26.0497 27.3834 26.0099C27.4681 25.97 27.544 25.9136 27.6066 25.844V26.084C27.207 26.3402 26.5614 26.2136 26.451 25.8062C26.5296 25.8249 26.6102 25.8342 26.691 25.8338C26.8554 25.8338 27.045 25.7738 27.045 25.6136C27.0463 25.5677 27.0295 25.523 26.9982 25.4894C26.9668 25.4557 26.9235 25.4357 26.8776 25.4336C26.8672 25.4328 26.8568 25.4328 26.8464 25.4336C26.6844 25.4396 26.6784 25.6028 26.8398 25.6028L26.8326 25.5998ZM25.7694 26.1002C25.4328 26.0966 25.3284 25.8656 25.3284 25.8002V25.4672H25.1412V25.3202H26.4414V25.4672H26.2944V26.4134H26.0394V26.0534C25.9574 26.0954 25.8655 26.1141 25.7736 26.1074L25.7694 26.1002ZM26.0334 25.4624H25.5798V25.8074C25.5798 25.8866 25.6362 25.9622 25.7814 25.967C25.8288 25.9672 25.8757 25.9575 25.9191 25.9385C25.9625 25.9195 26.0014 25.8916 26.0334 25.8566V25.4624ZM23.5464 26.0624H23.8464V26.2688H23.5464V26.0624ZM23.5464 25.4672H23.8464V25.6742H23.5464V25.4672ZM21.6618 25.8998C21.6618 25.565 22.1766 25.5872 22.1766 25.5872L22.2366 25.7342C22.185 25.7216 21.9216 25.7174 21.9102 25.898C21.9116 25.9212 21.9176 25.9438 21.9278 25.9646C21.938 25.9854 21.9522 26.004 21.9696 26.0193C21.987 26.0346 22.0072 26.0464 22.0292 26.0539C22.0511 26.0614 22.0743 26.0645 22.0974 26.063H22.1058C22.1509 26.066 22.1962 26.0584 22.2378 26.0408C22.2795 26.0232 22.3165 25.9961 22.3458 25.9616V25.4672H21.5094V25.3202H23.3532V25.4672H22.5942V25.688C22.669 25.6318 22.7611 25.6034 22.8546 25.6076C23.07 25.6076 23.2518 25.7414 23.2518 25.9016C23.2518 26.1104 22.9518 26.3006 22.9518 26.3006L22.7628 26.1938C22.7682 26.1938 22.995 26.0552 22.995 25.8998C22.9939 25.8581 22.9763 25.8185 22.946 25.7897C22.9158 25.7609 22.8753 25.7453 22.8336 25.7462H22.8252C22.7796 25.7512 22.7355 25.7654 22.6955 25.788C22.6556 25.8106 22.6207 25.8411 22.593 25.8776V26.4122H22.3374V26.1548C22.065 26.2904 21.6618 26.1698 21.6618 25.8962V25.8998ZM20.0784 25.3226H21.5064V25.4696H21.3594V26.4158H21.0978V25.8548H20.6442V26.0018C20.6452 26.0103 20.6444 26.0189 20.6419 26.027C20.6393 26.0352 20.6351 26.0426 20.6294 26.049C20.6237 26.0554 20.6167 26.0604 20.609 26.0639C20.6012 26.0673 20.5927 26.0691 20.5842 26.069C20.579 26.0696 20.5738 26.0696 20.5686 26.069C20.4804 26.0648 20.2254 25.829 20.2254 25.778C20.2254 25.7048 20.319 25.7048 20.3304 25.7048H21.093V25.4648H20.079L20.0784 25.3226ZM19.446 25.3226H20.0724V25.4696H19.9254V26.4158H19.665V25.463H19.449L19.446 25.3226ZM19.041 25.4696H18.6126V25.793H19.0434L19.041 25.4696ZM18.021 25.3226H19.449V25.4696H19.305V26.4158H19.041V25.9358H18.6126V26.063C18.6127 26.0727 18.6109 26.0822 18.6073 26.0911C18.6036 26.1 18.5983 26.1081 18.5916 26.115C18.5848 26.1218 18.5768 26.1273 18.568 26.131C18.5591 26.1348 18.5496 26.1368 18.54 26.1368H18.5304C18.4572 26.1368 18.1626 25.8968 18.1626 25.85C18.1626 25.8032 18.2562 25.796 18.2622 25.796H18.3612V25.4678H18.021V25.3226Z" fill="#E6363B"/>
</g>
<path d="M51.8247 24V13.8182H55.5534C56.2759 13.8182 56.8741 13.9375 57.3481 14.1761C57.8221 14.4115 58.1767 14.7313 58.412 15.1357C58.6473 15.5367 58.765 15.9891 58.765 16.4929C58.765 16.9171 58.6871 17.2751 58.5313 17.5668C58.3756 17.8551 58.1668 18.0871 57.9049 18.2628C57.6464 18.4351 57.3614 18.5611 57.0498 18.6406V18.7401C57.3879 18.7566 57.7177 18.866 58.0392 19.0682C58.364 19.267 58.6324 19.5504 58.8445 19.9183C59.0567 20.2862 59.1627 20.7337 59.1627 21.2607C59.1627 21.781 59.0401 22.2483 58.7948 22.6626C58.5529 23.0736 58.1784 23.4001 57.6713 23.642C57.1642 23.8807 56.5162 24 55.7274 24H51.8247ZM53.3609 22.6825H55.5782C56.314 22.6825 56.841 22.54 57.1592 22.255C57.4774 21.9699 57.6365 21.6136 57.6365 21.1861C57.6365 20.8646 57.5553 20.5696 57.3928 20.3011C57.2304 20.0327 56.9984 19.8189 56.6968 19.6598C56.3985 19.5007 56.0439 19.4212 55.6329 19.4212H53.3609V22.6825ZM53.3609 18.223H55.4191C55.7638 18.223 56.0737 18.1567 56.3488 18.0241C56.6272 17.8916 56.8476 17.706 57.01 17.4673C57.1758 17.2254 57.2586 16.9403 57.2586 16.6122C57.2586 16.1913 57.1111 15.8383 56.8161 15.5533C56.5212 15.2682 56.0687 15.1257 55.4589 15.1257H53.3609V18.223ZM62.437 13.8182V24H60.9008V13.8182H62.437ZM70.1435 16.4929C70.0905 16.0223 69.8717 15.6577 69.4873 15.3991C69.1028 15.1373 68.6189 15.0064 68.0356 15.0064C67.618 15.0064 67.2567 15.0727 66.9518 15.2053C66.6468 15.3345 66.4099 15.5135 66.2408 15.7422C66.0751 15.9676 65.9922 16.2244 65.9922 16.5128C65.9922 16.7547 66.0486 16.9635 66.1613 17.1392C66.2773 17.3149 66.4281 17.4624 66.6137 17.5817C66.8026 17.6977 67.0048 17.7955 67.2202 17.875C67.4357 17.9512 67.6428 18.0142 67.8417 18.0639L68.836 18.3224C69.1608 18.402 69.4939 18.5097 69.8353 18.6456C70.1767 18.7815 70.4932 18.9605 70.7849 19.1825C71.0765 19.4046 71.3118 19.6797 71.4908 20.0078C71.6731 20.3359 71.7643 20.7287 71.7643 21.1861C71.7643 21.7628 71.6151 22.2749 71.3168 22.7223C71.0218 23.1697 70.5926 23.5227 70.0292 23.7812C69.469 24.0398 68.7913 24.169 67.9958 24.169C67.2335 24.169 66.5739 24.0481 66.0171 23.8061C65.4603 23.5642 65.0244 23.2211 64.7096 22.777C64.3947 22.3295 64.2207 21.7992 64.1876 21.1861H65.7288C65.7586 21.554 65.8779 21.8606 66.0867 22.1058C66.2988 22.3478 66.5689 22.5284 66.8971 22.6477C67.2285 22.7637 67.5914 22.8217 67.9859 22.8217C68.42 22.8217 68.8062 22.7538 69.1442 22.6179C69.4856 22.4787 69.7541 22.2865 69.9496 22.0412C70.1452 21.7926 70.243 21.5026 70.243 21.1712C70.243 20.8696 70.1568 20.6226 69.9844 20.4304C69.8154 20.2382 69.585 20.0791 69.2934 19.9531C69.005 19.8272 68.6786 19.7161 68.314 19.62L67.1109 19.2919C66.2955 19.0698 65.6492 18.7434 65.1719 18.3125C64.698 17.8816 64.461 17.3116 64.461 16.6023C64.461 16.0156 64.6201 15.5036 64.9383 15.0661C65.2564 14.6286 65.6873 14.2888 66.2309 14.0469C66.7744 13.8016 67.3876 13.679 68.0704 13.679C68.7598 13.679 69.368 13.8 69.8949 14.0419C70.4252 14.2839 70.8429 14.617 71.1478 15.0412C71.4527 15.4621 71.6118 15.946 71.6251 16.4929H70.1435ZM85.5938 17.1293H84.0426C83.983 16.7978 83.8719 16.5062 83.7095 16.2543C83.5471 16.0024 83.3483 15.7886 83.113 15.6129C82.8776 15.4373 82.6141 15.3047 82.3225 15.2152C82.0341 15.1257 81.7275 15.081 81.4027 15.081C80.8161 15.081 80.2907 15.2285 79.8267 15.5234C79.366 15.8184 79.0014 16.2509 78.733 16.821C78.4678 17.3911 78.3353 18.0871 78.3353 18.9091C78.3353 19.7377 78.4678 20.437 78.733 21.0071C79.0014 21.5772 79.3677 22.008 79.8317 22.2997C80.2957 22.5914 80.8177 22.7372 81.3978 22.7372C81.7192 22.7372 82.0242 22.6941 82.3125 22.608C82.6042 22.5185 82.8677 22.3875 83.103 22.2152C83.3383 22.0429 83.5372 21.8324 83.6996 21.5838C83.8653 21.3319 83.9797 21.0436 84.0426 20.7188L85.5938 20.7237C85.5109 21.2242 85.3502 21.6849 85.1115 22.1058C84.8762 22.5234 84.5729 22.8847 84.2017 23.1896C83.8338 23.4912 83.4129 23.7249 82.9389 23.8906C82.465 24.0563 81.9479 24.1392 81.3878 24.1392C80.5062 24.1392 79.7207 23.9304 79.0313 23.5128C78.3419 23.0919 77.7983 22.4903 77.4006 21.7081C77.0062 20.9259 76.809 19.9929 76.809 18.9091C76.809 17.822 77.0078 16.889 77.4056 16.1101C77.8033 15.3279 78.3469 14.728 79.0362 14.3104C79.7256 13.8894 80.5095 13.679 81.3878 13.679C81.9281 13.679 82.4318 13.7569 82.8992 13.9126C83.3698 14.0651 83.7924 14.2905 84.1669 14.5888C84.5415 14.8838 84.8514 15.245 85.0966 15.6726C85.3419 16.0968 85.5076 16.5824 85.5938 17.1293ZM90.5199 24.1541C89.7675 24.1541 89.1196 23.9934 88.576 23.6719C88.0358 23.3471 87.6181 22.8913 87.3232 22.3047C87.0315 21.7147 86.8857 21.0237 86.8857 20.2315C86.8857 19.4493 87.0315 18.7599 87.3232 18.1634C87.6181 17.5668 88.0291 17.1011 88.5561 16.7663C89.0864 16.4316 89.7062 16.2642 90.4155 16.2642C90.8464 16.2642 91.264 16.3355 91.6683 16.478C92.0727 16.6205 92.4356 16.8442 92.7571 17.1491C93.0786 17.4541 93.3322 17.8501 93.5178 18.3374C93.7034 18.8213 93.7962 19.4096 93.7962 20.1023V20.6293H87.7259V19.5156H92.3395C92.3395 19.1245 92.26 18.7782 92.1009 18.4766C91.9418 18.1716 91.7181 17.9313 91.4297 17.7557C91.1447 17.58 90.8099 17.4922 90.4254 17.4922C90.0078 17.4922 89.6432 17.5949 89.3317 17.8004C89.0235 18.0026 88.7848 18.2678 88.6158 18.5959C88.4501 18.9207 88.3672 19.2737 88.3672 19.6548V20.5249C88.3672 21.0353 88.4567 21.4695 88.6357 21.8274C88.818 22.1854 89.0715 22.4588 89.3963 22.6477C89.7211 22.8333 90.1006 22.9261 90.5348 22.9261C90.8165 22.9261 91.0734 22.8864 91.3054 22.8068C91.5374 22.724 91.7379 22.6013 91.907 22.4389C92.076 22.2765 92.2053 22.076 92.2948 21.8374L93.7017 22.0909C93.589 22.5052 93.3868 22.8681 93.0952 23.1797C92.8068 23.4879 92.4439 23.7282 92.0064 23.9006C91.5722 24.0696 91.0767 24.1541 90.5199 24.1541ZM95.3615 24V16.3636H96.7983V17.5767H96.8778C97.017 17.1657 97.2623 16.8426 97.6136 16.6072C97.9683 16.3686 98.3693 16.2493 98.8168 16.2493C98.9096 16.2493 99.0189 16.2526 99.1449 16.2592C99.2741 16.2659 99.3752 16.2741 99.4481 16.2841V17.706C99.3885 17.6894 99.2824 17.6712 99.13 17.6513C98.9775 17.6281 98.825 17.6165 98.6726 17.6165C98.3213 17.6165 98.008 17.6911 97.7329 17.8402C97.4612 17.986 97.2457 18.1899 97.0866 18.4517C96.9276 18.7102 96.848 19.0052 96.848 19.3366V24H95.3615ZM104.666 16.3636V17.5568H100.495V16.3636H104.666ZM101.614 14.5341H103.1V21.7578C103.1 22.0462 103.143 22.2633 103.23 22.4091C103.316 22.5516 103.427 22.6494 103.563 22.7024C103.702 22.7521 103.853 22.777 104.015 22.777C104.134 22.777 104.239 22.7687 104.328 22.7521C104.418 22.7356 104.487 22.7223 104.537 22.7124L104.806 23.9403C104.719 23.9735 104.597 24.0066 104.438 24.0398C104.279 24.0762 104.08 24.0961 103.841 24.0994C103.45 24.1061 103.085 24.0365 102.747 23.8906C102.409 23.7448 102.136 23.5194 101.927 23.2145C101.718 22.9096 101.614 22.5268 101.614 22.0661V14.5341ZM106.227 24V16.3636H107.713V24H106.227ZM106.977 15.1854C106.719 15.1854 106.497 15.0992 106.311 14.9268C106.129 14.7512 106.038 14.5424 106.038 14.3004C106.038 14.0552 106.129 13.8464 106.311 13.674C106.497 13.4983 106.719 13.4105 106.977 13.4105C107.236 13.4105 107.456 13.4983 107.639 13.674C107.824 13.8464 107.917 14.0552 107.917 14.3004C107.917 14.5424 107.824 14.7512 107.639 14.9268C107.456 15.0992 107.236 15.1854 106.977 15.1854ZM113.263 16.3636V17.5568H108.948V16.3636H113.263ZM110.131 24V15.4787C110.131 15.0014 110.236 14.6053 110.444 14.2905C110.653 13.9723 110.93 13.7353 111.275 13.5795C111.619 13.4205 111.994 13.3409 112.398 13.3409C112.697 13.3409 112.952 13.3658 113.164 13.4155C113.376 13.4619 113.533 13.505 113.636 13.5447L113.288 14.7479C113.219 14.728 113.129 14.7048 113.02 14.6783C112.91 14.6484 112.778 14.6335 112.622 14.6335C112.261 14.6335 112.002 14.723 111.846 14.902C111.694 15.081 111.618 15.3395 111.618 15.6776V24H110.131ZM114.713 24V16.3636H116.2V24H114.713ZM115.464 15.1854C115.205 15.1854 114.983 15.0992 114.798 14.9268C114.615 14.7512 114.524 14.5424 114.524 14.3004C114.524 14.0552 114.615 13.8464 114.798 13.674C114.983 13.4983 115.205 13.4105 115.464 13.4105C115.722 13.4105 115.943 13.4983 116.125 13.674C116.311 13.8464 116.403 14.0552 116.403 14.3004C116.403 14.5424 116.311 14.7512 116.125 14.9268C115.943 15.0992 115.722 15.1854 115.464 15.1854ZM121.407 24.1541C120.654 24.1541 120.006 23.9934 119.463 23.6719C118.922 23.3471 118.505 22.8913 118.21 22.3047C117.918 21.7147 117.772 21.0237 117.772 20.2315C117.772 19.4493 117.918 18.7599 118.21 18.1634C118.505 17.5668 118.916 17.1011 119.443 16.7663C119.973 16.4316 120.593 16.2642 121.302 16.2642C121.733 16.2642 122.151 16.3355 122.555 16.478C122.959 16.6205 123.322 16.8442 123.644 17.1491C123.965 17.4541 124.219 17.8501 124.404 18.3374C124.59 18.8213 124.683 19.4096 124.683 20.1023V20.6293H118.612V19.5156H123.226C123.226 19.1245 123.147 18.7782 122.987 18.4766C122.828 18.1716 122.605 17.9313 122.316 17.7557C122.031 17.58 121.697 17.4922 121.312 17.4922C120.894 17.4922 120.53 17.5949 120.218 17.8004C119.91 18.0026 119.671 18.2678 119.502 18.5959C119.337 18.9207 119.254 19.2737 119.254 19.6548V20.5249C119.254 21.0353 119.343 21.4695 119.522 21.8274C119.705 22.1854 119.958 22.4588 120.283 22.6477C120.608 22.8333 120.987 22.9261 121.421 22.9261C121.703 22.9261 121.96 22.8864 122.192 22.8068C122.424 22.724 122.625 22.6013 122.794 22.4389C122.963 22.2765 123.092 22.076 123.181 21.8374L124.588 22.0909C124.476 22.5052 124.273 22.8681 123.982 23.1797C123.693 23.4879 123.331 23.7282 122.893 23.9006C122.459 24.0696 121.963 24.1541 121.407 24.1541ZM129.107 24.1491C128.49 24.1491 127.94 23.9917 127.456 23.6768C126.976 23.3587 126.598 22.9062 126.323 22.3196C126.051 21.7296 125.915 21.022 125.915 20.1967C125.915 19.3714 126.053 18.6655 126.328 18.0788C126.606 17.4922 126.987 17.0431 127.471 16.7315C127.955 16.42 128.504 16.2642 129.117 16.2642C129.591 16.2642 129.972 16.3438 130.26 16.5028C130.552 16.6586 130.777 16.8409 130.936 17.0497C131.099 17.2585 131.225 17.4425 131.314 17.6016H131.404V13.8182H132.89V24H131.438V22.8118H131.314C131.225 22.9742 131.095 23.1598 130.926 23.3686C130.761 23.5774 130.532 23.7597 130.24 23.9155C129.949 24.0713 129.571 24.1491 129.107 24.1491ZM129.435 22.8814C129.862 22.8814 130.224 22.7687 130.519 22.5433C130.817 22.3146 131.042 21.9981 131.195 21.5938C131.351 21.1894 131.429 20.7187 131.429 20.1818C131.429 19.6515 131.352 19.1875 131.2 18.7898C131.047 18.392 130.824 18.0821 130.529 17.8601C130.234 17.638 129.869 17.527 129.435 17.527C128.987 17.527 128.615 17.643 128.316 17.875C128.018 18.107 127.793 18.4235 127.64 18.8246C127.491 19.2256 127.416 19.678 127.416 20.1818C127.416 20.6922 127.493 21.1513 127.645 21.5589C127.798 21.9666 128.023 22.2898 128.321 22.5284C128.623 22.7637 128.994 22.8814 129.435 22.8814Z" fill="#4B5563"/>
</g>
<defs>
<filter id="filter0_d_490_8830" x="0" y="0" width="146" height="40" filterUnits="userSpaceOnUse" color-interpolation-filters="sRGB">
<feFlood flood-opacity="0" result="BackgroundImageFix"/>
<feColorMatrix in="SourceAlpha" type="matrix" values="0 0 0 0 0 0 0 0 0 0 0 0 0 0 0 0 0 0 127 0" result="hardAlpha"/>
<feOffset dy="1"/>
<feGaussianBlur stdDeviation="1"/>
<feColorMatrix type="matrix" values="0 0 0 0 0 0 0 0 0 0 0 0 0 0 0 0 0 0 0.05 0"/>
<feBlend mode="normal" in2="BackgroundImageFix" result="effect1_dropShadow_490_8830"/>
<feBlend mode="normal" in="SourceGraphic" in2="effect1_dropShadow_490_8830" result="shape"/>
</filter>
<clipPath id="clip0_490_8830">
<rect width="26.4708" height="18" fill="white" transform="translate(12.7646 10)"/>
</clipPath>
</defs>
</svg>
